<svg width="172" height="172" viewBox="0 0 172 172" fill="none" xmlns="http://www.w3.org/2000/svg">
<rect width="172" height="172" rx="86" fill="#F4F4FB"/>
<path d="M112.514 49.8072C112.77 49.9032 113.058 50.0312 113.314 50.1272C114.946 50.8632 115.778 52.7192 115.234 54.4472C114.69 56.1432 112.93 57.2312 111.202 56.8792C110.722 56.7832 110.434 56.8792 110.114 57.2632C109.346 58.2552 108.226 59.0872 107.842 60.1752C107.426 61.2632 107.714 62.6392 107.714 63.8552C107.714 67.6632 107.682 71.4712 107.746 75.2792C107.746 75.7272 107.97 76.2392 108.194 76.6552C108.706 77.5512 109.314 78.3832 109.826 79.2792C110.306 80.1112 110.178 80.7512 109.538 81.1352C108.898 81.5192 108.226 81.2952 107.778 80.4632C106.05 77.3592 103.714 74.8952 100.706 73.0072C89.0256 65.6472 73.1856 72.3992 70.4016 85.8712C70.3056 86.2872 70.2416 86.7352 69.9856 87.0552C69.5696 87.6312 68.9296 87.6632 68.3536 87.2472C66.0176 85.5192 63.4256 84.6232 60.5456 84.5912C59.8096 84.5912 59.3296 84.0152 59.3296 83.3752C59.3616 82.7352 59.8736 82.1912 60.6096 82.2232C61.7936 82.2872 62.9776 82.4152 64.2256 82.5112C64.2256 82.2872 64.2256 82.0312 64.2256 81.7752C64.2256 74.8312 64.2256 67.8552 64.1936 60.9112C64.1936 60.4952 64.0016 59.9832 63.7456 59.6312C63.1056 58.7672 62.3696 57.9352 61.6656 57.1352C61.5056 56.9752 61.1856 56.8152 60.9616 56.8472C58.8496 57.1352 57.1216 56.1432 56.6416 54.2872C56.1616 52.3992 57.1536 50.7032 59.1376 49.9352C59.2016 49.9032 59.2656 49.8392 59.3296 49.8072C59.8736 49.8072 60.3856 49.8072 60.9296 49.8072C60.9936 49.8392 61.0256 49.9352 61.0896 49.9352C63.3616 50.8312 64.0976 52.4952 63.3616 54.8312C63.2976 55.0552 63.4256 55.4392 63.5856 55.6312C64.3856 56.6232 65.2496 57.5512 65.9856 58.5752C66.3056 59.0232 66.5616 59.6632 66.5936 60.2072C66.6256 64.6872 66.6256 69.1352 66.6256 73.6152C66.6256 76.6552 66.6256 79.6952 66.6256 82.7352C66.6256 82.9912 66.6896 83.3752 66.8496 83.4712C67.2976 83.7912 67.8096 83.9832 68.2896 84.2072C68.3536 84.0472 68.4176 83.9512 68.4496 83.8552C69.4416 80.4312 71.1056 77.4232 73.5056 74.7992C73.7296 74.5432 73.8576 74.1272 73.8576 73.8072C73.8896 69.6792 73.8576 65.5512 73.8896 61.4232C73.8896 60.9112 73.7296 60.6552 73.2816 60.3672C71.8416 59.5672 71.2016 57.9032 71.6496 56.3352C72.0656 54.8312 73.5056 53.7432 75.0736 53.7112C76.6736 53.7112 78.1456 54.8312 78.5616 56.3352C78.9776 57.9032 78.3376 59.5352 76.8656 60.3352C76.4176 60.5912 76.2896 60.8472 76.2896 61.3272C76.3216 64.6872 76.2896 68.0472 76.2896 71.4072C76.2896 71.6312 76.3216 71.8232 76.3536 72.1112C76.5136 72.0472 76.5776 72.0152 76.6416 71.9512C78.9776 70.2232 81.5056 68.9752 84.3216 68.2712C84.8656 68.1432 84.8656 67.8232 84.8656 67.3752C84.8656 64.0472 84.8656 60.7192 84.8656 57.3592C84.8656 56.8472 84.7376 56.5592 84.2576 56.3032C83.0096 55.5992 82.4016 54.4472 82.4976 53.0072C82.5936 51.5672 83.3616 50.5432 84.7056 49.9672C84.8976 49.8712 85.0576 49.7752 85.2496 49.7112C85.7936 49.7112 86.3056 49.7112 86.8496 49.7112C86.9456 49.7752 87.0736 49.8392 87.1696 49.9032C88.5776 50.4472 89.4416 51.4392 89.5696 52.9752C89.6976 54.5112 89.0256 55.6632 87.7136 56.4632C87.4576 56.6232 87.2656 57.0392 87.2656 57.3272C87.2336 60.5912 87.2336 63.8232 87.2336 67.0872C87.2336 67.2792 87.2656 67.4392 87.2656 67.4072C90.1456 67.5992 92.9296 67.7592 95.7776 67.9512C95.7776 65.7112 95.7776 63.3752 95.7456 61.0392C95.7456 60.8472 95.4576 60.5912 95.2336 60.4312C93.7616 59.5352 93.0896 57.9352 93.5056 56.3672C93.9216 54.8312 95.3936 53.7112 96.9936 53.7432C98.5616 53.7752 99.9696 54.8632 100.386 56.3672C100.834 57.9352 100.162 59.5992 98.6576 60.4312C98.2416 60.6552 98.1136 60.9112 98.1136 61.3592C98.1456 63.6952 98.1456 65.9992 98.1136 68.3352C98.1136 68.8472 98.2736 69.0712 98.7216 69.2632C100.898 70.1272 102.85 71.3752 104.642 72.8792C104.802 73.0072 104.994 73.1352 105.282 73.3272C105.282 72.8792 105.282 72.5912 105.282 72.3032C105.282 68.2392 105.25 64.1432 105.314 60.0792C105.314 59.5672 105.57 58.9592 105.89 58.5112C106.626 57.5192 107.458 56.5912 108.29 55.6632C108.61 55.3112 108.674 55.0232 108.482 54.5432C107.97 53.2632 108.162 52.0152 109.122 50.9912C109.634 50.4472 110.402 50.1272 111.074 49.7112C111.554 49.8072 112.034 49.8072 112.514 49.8072ZM111.842 54.5432C112.482 54.5432 112.994 53.9992 112.994 53.3912C112.994 52.7192 112.45 52.1752 111.81 52.1752C111.17 52.1752 110.658 52.7192 110.626 53.3272C110.626 53.9992 111.202 54.5752 111.842 54.5432ZM61.2816 53.3592C61.2816 52.7192 60.7696 52.2072 60.1616 52.1752C59.4896 52.1432 58.9456 52.7192 58.9456 53.3592C58.9456 53.9992 59.5216 54.5752 60.1616 54.5432C60.7696 54.5432 61.2816 53.9992 61.2816 53.3592ZM87.1696 53.3592C87.1696 52.7192 86.6576 52.2072 86.0176 52.2072C85.3456 52.2072 84.8336 52.7512 84.8336 53.4232C84.8336 54.0632 85.3776 54.5752 85.9856 54.5752C86.6576 54.5752 87.1696 53.9992 87.1696 53.3592ZM73.8896 57.3912C73.8896 58.0312 74.4016 58.5432 75.0416 58.5432C75.7136 58.5432 76.2576 58.0312 76.2256 57.3592C76.2256 56.7512 75.6816 56.2072 75.0736 56.2072C74.4336 56.1752 73.8576 56.7192 73.8896 57.3912ZM95.7776 57.3592C95.7776 57.9992 96.2576 58.5112 96.8976 58.5432C97.5696 58.5752 98.1136 58.0632 98.1136 57.3912C98.1136 56.7192 97.5696 56.1752 96.9296 56.1752C96.3216 56.2072 95.7776 56.7192 95.7776 57.3592Z" fill="#D29211"/>
<path d="M126.397 102.116C126.269 102.66 126.173 103.204 126.045 103.716C124.797 108.612 120.381 112.164 115.293 112.292C113.949 112.324 112.605 112.324 111.261 112.292C110.333 112.292 109.885 111.876 109.853 111.14C109.853 110.372 110.333 109.924 111.293 109.924C112.573 109.892 113.885 109.956 115.165 109.924C120.125 109.796 124.029 105.732 123.997 100.772C123.965 94.7559 117.981 90.4039 112.221 92.1959C111.997 92.2599 111.773 92.3559 111.549 92.4199C110.589 92.6759 109.981 92.1639 109.917 91.1719C109.789 89.2199 109.629 87.2999 109.469 85.3479C109.405 84.6439 109.757 84.0359 110.397 83.9079C111.037 83.7799 111.677 84.1639 111.773 84.8679C112.029 86.4359 112.253 88.0039 112.477 89.5719C113.821 89.5719 115.261 89.4119 116.669 89.6039C121.469 90.2119 125.437 94.1479 126.237 98.9159C126.269 99.1399 126.333 99.3639 126.397 99.5879C126.397 100.42 126.397 101.284 126.397 102.116Z" fill="#D29211"/>
<path d="M45.6048 96.2276C45.8608 91.0436 48.6128 86.4036 54.1168 83.5236C55.0448 83.0436 55.6848 83.1716 56.0368 83.8436C56.4208 84.5156 56.1008 85.1556 55.1728 85.6676C50.6928 88.0356 48.1648 91.7476 48.0368 96.8356C47.9088 101.892 50.2128 105.732 54.5328 108.324C56.3248 109.38 58.2768 109.924 60.3568 109.956C60.7088 109.956 61.0608 109.988 61.3488 110.116C61.8928 110.372 62.0848 110.884 61.9568 111.428C61.8288 112.004 61.3808 112.388 60.8048 112.292C59.1728 112.068 57.4768 111.972 55.9088 111.46C49.7648 109.476 45.6048 103.62 45.6048 96.2276Z" fill="#D29211"/>
<path d="M106.882 108.784V107.984C106.882 106.384 106.082 104.944 104.898 104.048C106.018 103.152 106.722 101.776 106.722 100.272V99.4719C106.722 96.7839 104.546 94.6079 101.858 94.6079H70.722C68.034 94.6079 65.858 96.7839 65.858 99.4719V100.272C65.858 101.872 66.658 103.312 67.842 104.208C66.722 105.104 66.018 106.48 66.018 107.984V108.784C66.018 110.352 66.754 111.76 67.938 112.656C66.786 113.552 66.018 114.928 66.018 116.528V117.328C66.018 120.016 68.194 122.192 70.882 122.192H101.986C104.674 122.192 106.85 120.016 106.85 117.328V116.528C106.85 114.96 106.114 113.552 104.93 112.656C106.146 111.728 106.882 110.352 106.882 108.784ZM67.778 100.24V99.4399C67.778 97.8079 69.09 96.4959 70.722 96.4959H101.826C103.458 96.4959 104.77 97.8079 104.77 99.4399V100.24C104.77 101.648 103.81 102.8 102.498 103.12C102.338 103.088 102.178 103.088 101.986 103.088H70.914C70.658 103.088 70.434 103.12 70.21 103.152C68.802 102.896 67.778 101.712 67.778 100.24ZM104.962 116.496V117.296C104.962 118.928 103.65 120.24 102.018 120.24H70.914C69.282 120.24 67.97 118.928 67.97 117.296V116.496C67.97 115.088 68.962 113.904 70.306 113.616C70.498 113.648 70.722 113.648 70.914 113.648H102.018C102.242 113.648 102.434 113.616 102.626 113.616C103.97 113.872 104.962 115.088 104.962 116.496ZM102.018 111.6H70.914C70.69 111.6 70.498 111.632 70.306 111.632C68.962 111.344 67.97 110.16 67.97 108.752V107.984C67.97 106.576 68.93 105.424 70.242 105.104C70.402 105.136 70.562 105.136 70.754 105.136H101.858C102.114 105.136 102.338 105.104 102.562 105.072C103.938 105.328 104.994 106.544 104.994 107.984V108.784C104.994 110.192 104.002 111.376 102.658 111.664C102.434 111.632 102.242 111.6 102.018 111.6Z" fill="#D29211"/>
<path d="M73.018 100.79H100.122C100.666 100.79 101.082 100.374 101.082 99.8299C101.082 99.2859 100.666 98.8699 100.122 98.8699H73.018C72.474 98.8699 72.058 99.2859 72.058 99.8299C72.058 100.342 72.474 100.79 73.018 100.79Z" fill="#D29211"/>
<path d="M100.122 115.98H73.018C72.474 115.98 72.058 116.396 72.058 116.94C72.058 117.484 72.474 117.9 73.018 117.9H100.122C100.666 117.9 101.082 117.484 101.082 116.94C101.082 116.396 100.634 115.98 100.122 115.98Z" fill="#D29211"/>
<path d="M100.02 107.41H98.1C97.556 107.41 97.14 107.826 97.14 108.37C97.14 108.914 97.556 109.33 98.1 109.33H100.02C100.564 109.33 100.98 108.914 100.98 108.37C100.98 107.858 100.532 107.41 100.02 107.41Z" fill="#D29211"/>
<path d="M75.04 107.41H73.12C72.576 107.41 72.16 107.826 72.16 108.37C72.16 108.914 72.576 109.33 73.12 109.33H75.04C75.584 109.33 76 108.914 76 108.37C76 107.858 75.552 107.41 75.04 107.41Z" fill="#D29211"/>
<path d="M88.224 107.41H84.896C84.352 107.41 83.936 107.826 83.936 108.37C83.936 108.914 84.352 109.33 84.896 109.33H88.224C88.768 109.33 89.184 108.914 89.184 108.37C89.184 107.858 88.768 107.41 88.224 107.41Z" fill="#D29211"/>
<path d="M81.644 107.41H78.316C77.772 107.41 77.356 107.826 77.356 108.37C77.356 108.914 77.772 109.33 78.316 109.33H81.644C82.188 109.33 82.604 108.914 82.604 108.37C82.604 107.858 82.156 107.41 81.644 107.41Z" fill="#D29211"/>
<path d="M94.824 107.41H91.496C90.952 107.41 90.536 107.826 90.536 108.37C90.536 108.914 90.952 109.33 91.496 109.33H94.824C95.368 109.33 95.784 108.914 95.784 108.37C95.784 107.858 95.368 107.41 94.824 107.41Z" fill="#D29211"/>
</svg>
