<svg width="35" height="30" viewBox="0 0 35 30" fill="none" xmlns="http://www.w3.org/2000/svg">
<path d="M26.2564 13.64C30.6366 13.64 34.1874 10.5956 34.1874 6.84001C34.1874 3.0845 30.6366 0.0400391 26.2564 0.0400391C21.8763 0.0400391 18.3254 3.0845 18.3254 6.84001C18.3254 10.5956 21.8763 13.64 26.2564 13.64Z" fill="#EFB034"/>
<path d="M26.2564 29.95C30.6366 29.95 34.1874 26.9055 34.1874 23.15C34.1874 19.3945 30.6366 16.35 26.2564 16.35C21.8763 16.35 18.3254 19.3945 18.3254 23.15C18.3254 26.9055 21.8763 29.95 26.2564 29.95Z" fill="#0D0C22"/>
<path d="M0 11.6C0 5.21563 6.03644 0.0400391 13.4827 0.0400391V18.4C13.4827 24.7845 7.44626 29.96 0 29.96V11.6Z" fill="#0D0C22"/>
</svg>
