<svg width="172" height="172" viewBox="0 0 172 172" fill="none" xmlns="http://www.w3.org/2000/svg">
<rect width="172" height="172" rx="86" fill="#F6F7F8"/>
<path d="M81.9472 101.752C82.2032 101.4 82.3312 101.208 82.4592 101.048C86.3952 97.1124 90.3312 93.1444 94.2992 89.2084C95.8672 87.6404 97.7552 87.3524 99.5152 88.4084C101.563 89.5924 102.075 92.4724 100.603 94.3284C100.443 94.5524 100.251 94.7444 100.059 94.9364C95.0672 99.9604 90.0432 104.952 85.0192 109.976C83.7712 111.224 82.2672 111.704 80.5712 111.096C79.9952 110.872 79.4192 110.52 78.9712 110.072C76.5392 107.704 74.1392 105.304 71.7712 102.904C69.6912 100.792 70.1712 97.5604 72.7632 96.2804C74.2352 95.5444 75.7712 95.6724 77.0192 96.7604C78.5232 98.0724 79.8992 99.5764 81.3392 100.984C81.5632 101.144 81.6912 101.4 81.9472 101.752ZM82.0432 109.016C82.4912 108.696 83.0032 108.472 83.3552 108.088C88.3152 103.16 93.2752 98.2004 98.2352 93.2404C98.3632 93.1124 98.5232 92.9844 98.6192 92.8244C99.3232 91.9284 98.9072 90.6804 97.8192 90.3604C97.0832 90.1364 96.5712 90.4884 96.0592 90.9684C91.7712 95.2564 87.4832 99.5444 83.1952 103.832C82.2672 104.76 81.6912 104.792 80.7632 103.864C79.0992 102.2 77.4352 100.504 75.7392 98.8724C75.0352 98.1684 74.0752 98.2004 73.4672 98.8404C72.8592 99.4804 72.8592 100.408 73.5312 101.08C75.9632 103.512 78.3952 105.976 80.8592 108.376C81.1152 108.632 81.5632 108.76 82.0432 109.016Z" fill="#D29211"/>
<path d="M46.62 109.34C46.62 89.8201 46.62 70.3001 46.62 50.7801C47.868 47.4521 49.084 46.6201 52.636 46.6201C75.004 46.6201 97.404 46.6201 119.772 46.6201C123.324 46.6201 125.308 48.5721 125.308 52.1241C125.308 70.7161 125.276 89.3081 125.34 107.9C125.34 110.812 123.42 113.532 119.772 113.436C116.156 113.34 112.54 113.436 108.956 113.404C108.316 113.404 107.964 113.596 107.58 114.108C103.868 119.292 98.972 122.812 92.796 124.412C91.164 124.828 89.5 125.02 87.836 125.34C86.62 125.34 85.372 125.34 84.156 125.34C83.964 125.308 83.772 125.244 83.548 125.212C75.484 124.38 69.084 120.604 64.348 114.044C63.996 113.564 63.676 113.372 63.1 113.372C59.356 113.404 55.612 113.404 51.9 113.372C49.212 113.372 47.548 112.06 46.78 109.5C46.716 109.468 46.684 109.404 46.62 109.34ZM62.012 110.332C61.948 110.108 61.916 109.948 61.852 109.82C59.868 105.404 59.132 100.764 59.676 95.9641C60.06 92.5081 61.052 89.2761 62.748 86.2041C63.228 85.3401 64.092 85.0521 64.892 85.4681C65.66 85.8841 65.884 86.7161 65.5 87.5801C65.468 87.6761 65.404 87.7721 65.372 87.8681C62.78 92.7961 62.076 97.9801 63.1 103.42C65.5 116.124 78.364 124.572 91.004 121.692C103.228 118.908 110.94 107.612 109.084 95.1641C107.452 84.2201 97.852 75.7721 86.78 75.4841C82.588 75.3881 78.652 76.2521 74.94 78.2041C74.524 78.4281 74.012 78.5241 73.564 78.4601C72.892 78.3641 72.508 77.8521 72.444 77.1801C72.348 76.3801 72.764 75.9001 73.436 75.5481C78.844 72.7001 84.54 71.7401 90.556 72.7961C107.516 75.8041 117.084 93.7241 110.204 109.532C110.108 109.756 110.044 109.98 109.916 110.268C110.268 110.3 110.492 110.3 110.716 110.3C113.788 110.3 116.86 110.3 119.932 110.3C121.66 110.3 122.268 109.66 122.268 107.932C122.268 94.2041 122.268 80.4761 122.268 66.7481C122.268 66.4921 122.268 66.2041 122.268 65.9481C98.044 65.9481 73.884 65.9481 49.724 65.9481C49.724 66.2681 49.724 66.5241 49.724 66.7801C49.724 80.5081 49.724 94.2361 49.724 107.964C49.724 109.692 50.364 110.332 52.092 110.332C55.1 110.332 58.076 110.332 61.084 110.332C61.34 110.332 61.66 110.332 62.012 110.332ZM122.236 62.7801C122.236 59.1001 122.236 55.5161 122.236 51.9321C122.236 50.3961 121.532 49.6921 119.964 49.6921C97.308 49.6921 74.62 49.6921 51.964 49.6921C50.364 49.6921 49.692 50.3641 49.692 51.9961C49.692 55.3241 49.692 58.6521 49.692 61.9801C49.692 62.2361 49.692 62.4601 49.692 62.7481C73.916 62.7801 98.044 62.7801 122.236 62.7801Z" fill="#D29211"/>
<path d="M70.03 81.3481C70.03 82.2121 69.358 82.8521 68.494 82.8201C67.662 82.8201 66.99 82.1161 66.99 81.3161C66.99 80.4841 67.758 79.7481 68.59 79.7801C69.39 79.8121 70.03 80.4841 70.03 81.3481Z" fill="#D29211"/>
<path d="M69.1288 54.988C72.7768 54.988 76.3928 54.988 80.0408 54.988C80.2968 54.988 80.5528 54.988 80.8088 55.02C81.5448 55.084 82.0888 55.628 82.1528 56.364C82.2488 57.132 81.8008 57.804 81.0648 57.996C80.7768 58.06 80.4568 58.092 80.1688 58.092C72.8088 58.092 65.4808 58.092 58.1208 58.092C57.8008 58.092 57.5128 58.092 57.1928 57.996C56.4568 57.804 55.9768 57.132 56.0408 56.396C56.1048 55.66 56.6808 55.084 57.4488 55.02C58.0248 54.988 58.5688 54.988 59.1448 54.988C62.4728 54.988 65.8008 54.988 69.1288 54.988Z" fill="#D29211"/>
<path d="M96.32 56.492C96.32 55.66 96.992 55.02 97.824 55.02C98.688 55.02 99.392 55.724 99.36 56.556C99.328 57.356 98.624 58.06 97.824 58.06C96.992 58.06 96.288 57.356 96.32 56.492Z" fill="#D29211"/>
<path d="M112.764 56.4942C112.764 55.6302 113.404 54.9902 114.268 54.9902C115.1 54.9902 115.804 55.6302 115.836 56.4622C115.868 57.2942 115.132 58.0302 114.268 58.0302C113.436 58.0302 112.764 57.3582 112.764 56.4942Z" fill="#D29211"/>
<path d="M104.544 56.5261C104.544 55.6621 105.152 55.0221 106.016 54.9901C106.88 54.9581 107.616 55.6301 107.616 56.4941C107.616 57.3261 106.88 58.0621 106.048 58.0301C105.216 58.0301 104.544 57.3581 104.544 56.5261Z" fill="#D29211"/>
</svg>
