<svg width="172" height="172" viewBox="0 0 172 172" fill="none" xmlns="http://www.w3.org/2000/svg">
<rect width="172" height="172" rx="86" fill="#FEF9EE"/>
<path d="M124.546 117.92C124.162 118.432 123.81 118.976 123.362 119.424C121.954 120.864 120.546 122.272 119.106 123.68C117.954 124.832 116.866 124.832 115.714 123.68C110.882 118.848 106.018 113.984 101.186 109.152C100.034 108 99.9696 107.168 100.866 105.92C99.5216 104.608 98.2096 103.264 96.8336 101.888C92.9616 104.96 88.4176 107.008 83.3296 107.968C83.3296 110.208 83.3296 112.416 83.3296 114.624C83.3296 114.912 83.3296 115.168 83.3296 115.456C83.2976 116.16 82.8496 116.608 82.2096 116.608C81.5696 116.608 81.1216 116.16 81.0896 115.456C81.0576 114.784 81.0896 114.112 81.0896 113.408C81.0896 111.744 81.0896 110.048 81.0896 108.288C80.3856 108.32 79.7136 108.384 78.9456 108.448C78.9456 108.736 78.9456 108.992 78.9456 109.248C78.9456 112.896 78.9456 116.576 78.9456 120.224C78.9456 120.512 78.9456 120.832 78.8496 121.12C78.6896 121.664 78.2736 121.952 77.7296 121.92C77.1536 121.888 76.7696 121.536 76.7056 120.928C76.6736 120.672 76.7056 120.416 76.7056 120.16C76.7056 116.544 76.7056 112.928 76.7056 109.312C76.7056 109.024 76.7056 108.768 76.7056 108.416C75.9696 108.352 75.2976 108.288 74.4976 108.224C74.4976 108.736 74.4976 109.152 74.4976 109.568C74.4976 111.488 74.4976 113.376 74.4976 115.296C74.4976 116.128 74.0816 116.608 73.3776 116.608C72.7056 116.608 72.2576 116.128 72.2576 115.296C72.2576 113.12 72.2576 110.944 72.2576 108.736C72.2576 108.448 72.2576 108.192 72.2576 108.128C69.7616 107.232 67.2976 106.56 65.0576 105.472C55.2336 100.64 49.3456 92.7681 47.8416 81.9201C45.6656 66.5601 55.3296 52.3521 70.3056 48.4481C71.9376 48.0321 73.6656 47.8721 75.3296 47.5841C75.5216 47.5521 75.7136 47.4881 75.9056 47.4561C77.2496 47.4561 78.6256 47.4561 79.9696 47.4561C81.4736 47.7121 83.0096 47.8721 84.4816 48.1921C89.6656 49.2801 94.2096 51.6481 98.2096 55.1681C98.8816 55.7441 98.9776 56.4161 98.5616 56.9281C98.0816 57.4721 97.4096 57.4721 96.7056 56.8321C92.8976 53.4721 88.5456 51.1681 83.5536 50.3041C71.9376 48.2561 62.4336 51.9681 55.2336 61.2801C51.1376 66.5281 49.4736 72.6401 49.7296 79.2641C50.2096 91.2641 58.6576 101.888 70.2736 105.12C86.2096 109.568 102.466 99.5841 105.634 83.2961C107.202 75.1681 105.442 67.7121 100.514 61.0241C100.354 60.8001 100.162 60.5761 100.034 60.3521C99.7136 59.8081 99.7776 59.2961 100.258 58.8801C100.738 58.4641 101.346 58.5281 101.794 59.0081C102.05 59.2961 102.306 59.6481 102.53 59.9681C105.314 63.8081 107.17 68.0321 107.938 72.7041C108.034 73.2161 108.258 73.2801 108.674 73.2801C110.882 73.2801 113.09 73.2801 115.298 73.2801C115.65 73.2801 116.066 73.3121 116.29 73.5041C116.546 73.7601 116.802 74.3041 116.706 74.5921C116.578 74.9441 116.13 75.3921 115.746 75.4561C115.042 75.6161 114.306 75.5201 113.57 75.5201C111.842 75.5201 110.114 75.5201 108.386 75.5201C108.386 76.2561 108.386 76.9281 108.386 77.6961C108.706 77.6961 108.962 77.6961 109.25 77.6961C112.994 77.6961 116.738 77.6961 120.45 77.6961C120.706 77.6961 120.962 77.6641 121.186 77.7281C121.762 77.8561 122.114 78.2081 122.114 78.8161C122.114 79.4241 121.762 79.8081 121.186 79.9361C120.962 80.0001 120.738 79.9681 120.514 79.9681C116.738 79.9681 112.994 79.9681 109.218 79.9681C108.93 79.9681 108.674 79.9681 108.322 79.9681C108.258 80.6721 108.162 81.3121 108.066 82.0801C108.354 82.1121 108.61 82.1121 108.866 82.1441C110.914 82.1441 112.93 82.1441 114.978 82.1441C115.202 82.1441 115.426 82.1441 115.65 82.1761C116.322 82.2721 116.738 82.7201 116.77 83.2961C116.77 83.9041 116.29 84.3841 115.586 84.4161C114.21 84.4481 112.834 84.4161 111.458 84.4161C110.242 84.4161 108.994 84.4161 107.714 84.4161C106.658 89.0561 104.706 93.2161 101.794 96.8961C103.138 98.2401 104.482 99.584 105.794 100.928C107.266 100 107.938 100.064 109.218 101.344C112.482 104.608 115.746 107.872 119.01 111.136C119.138 111.264 119.266 111.392 119.362 111.52C119.778 112.032 119.778 112.64 119.394 113.088C118.946 113.568 118.306 113.6 117.794 113.088C117.058 112.384 116.322 111.648 115.618 110.912C115.106 110.4 114.626 109.856 114.178 109.408C112.546 111.04 110.946 112.608 109.442 114.112C112.066 116.736 114.754 119.392 117.442 122.08C118.914 120.576 120.514 119.008 122.178 117.312C121.89 117.088 121.538 116.832 121.25 116.512C120.77 116 120.802 115.328 121.282 114.912C121.73 114.496 122.37 114.496 122.85 114.944C123.458 115.552 123.97 116.256 124.546 116.928C124.546 117.216 124.546 117.568 124.546 117.92ZM109.026 104.544C108.482 103.936 107.938 103.296 107.522 102.816C105.922 104.416 104.354 105.984 102.85 107.488C103.33 108 103.906 108.608 104.418 109.152C105.986 107.584 107.554 106.016 109.026 104.544ZM112.194 107.776C111.746 107.232 111.298 106.656 110.914 106.208C109.314 107.808 107.746 109.344 106.21 110.88C106.658 111.328 107.17 111.84 107.65 112.288C109.186 110.752 110.754 109.216 112.194 107.776ZM100.258 98.848C99.7776 99.2961 99.2656 99.7761 98.8496 100.192C100.13 101.504 101.41 102.784 102.69 104.032C103.138 103.616 103.65 103.136 104.098 102.688C102.786 101.376 101.506 100.096 100.258 98.848Z" fill="#D29211"/>
<path d="M84.0308 72.5581C84.3828 72.5581 84.6388 72.5581 84.9268 72.5581C86.8788 72.5581 88.8308 72.5581 90.7828 72.5581C92.5108 72.5581 93.0548 73.1021 93.0548 74.8621C93.0548 76.4941 93.0548 86.6701 93.0548 88.2701C93.0548 88.5261 93.0548 88.8141 93.0548 89.1981C93.5988 89.1981 94.0788 89.1981 94.5268 89.1981C95.1988 89.2301 95.6148 89.5821 95.6788 90.2541C95.7428 90.8941 95.2948 91.3421 94.5908 91.4381C94.3028 91.4701 94.0468 91.4701 93.7588 91.4701C83.4868 91.4701 73.2468 91.4701 62.9748 91.4701C62.6228 91.4701 62.2708 91.4701 61.9188 91.4061C61.3108 91.2781 61.0228 90.8621 61.0548 90.2541C61.0868 89.6781 61.4068 89.3261 61.9828 89.2301C62.1428 89.1981 62.2708 89.1981 62.4308 89.1981C63.6788 89.1661 63.6788 89.1661 63.6788 87.9501C63.6788 84.4941 63.6788 72.4941 63.6788 69.0381C63.6788 67.3741 64.2548 66.7981 65.8868 66.7981C67.8708 66.7981 69.8548 66.7981 71.8388 66.7981C72.0948 66.7981 72.3828 66.7981 72.7348 66.7981C72.7348 65.5501 72.7348 64.3981 72.7348 63.2461C72.7348 61.6461 73.3428 61.0701 74.9108 61.0701C77.2468 61.0701 79.5828 61.0701 81.9188 61.0701C83.4228 61.0701 84.0308 61.6781 84.0308 63.1821C84.0308 65.9661 84.0308 68.7501 84.0308 71.5341C84.0308 71.8541 84.0308 72.1421 84.0308 72.5581ZM81.7588 63.4381C79.4548 63.4381 77.2468 63.4381 75.0388 63.4381C75.0068 63.5661 75.0068 63.5981 75.0068 63.6621C75.0068 69.1661 75.0068 83.1821 74.9748 88.6541C74.9748 89.1661 75.2308 89.2301 75.6148 89.2301C77.3748 89.2301 79.1348 89.1981 80.8628 89.2301C81.5348 89.2621 81.7588 89.0381 81.7588 88.3661C81.7268 83.1821 81.7588 69.4541 81.7588 64.2701C81.7588 64.0141 81.7588 63.7581 81.7588 63.4381ZM65.9828 89.1661C68.2548 89.1661 70.4308 89.1661 72.6388 89.1661C72.6388 85.2941 72.6388 72.9421 72.6388 69.1661C70.3668 69.1661 68.1908 69.1661 65.9828 69.1661C65.9828 72.9741 65.9828 85.2941 65.9828 89.1661ZM84.0628 89.1661C86.3028 89.1661 88.5108 89.1661 90.7188 89.1661C90.7188 87.2141 90.7188 76.7821 90.7188 74.8621C88.4788 74.8621 86.2708 74.8621 84.0628 74.8621C84.0628 76.8141 84.0628 87.2461 84.0628 89.1661Z" fill="#D29211"/>
</svg>
